<svg
  xmlns="http://www.w3.org/2000/svg"
  viewBox="0 0 24 24"
  width="24"
  height="24"
  fill="currentColor"
>
  <path d="M12 2C8.13 2 5 5.13 5 9c0 2.64 1.27 4.99 3.24 6.36l-1.06 4.24a1 1 0 0 0 1.21 1.21l4.24-1.06C15.01 17.73 17.36 19 20 19c3.87 0 7-3.13 7-7s-3.13-7-7-7c-2.64 0-4.99 1.27-6.36 3.24L8.4 4.4A6.974 6.974 0 0 0 12 2m0-2C6.48 0 2 4.48 2 10c0 1.63.39 3.16 1.08 4.5L.38 22.62a1.002 1.002 0 0 0 1.27 1.27l8.12-2.7c1.34.69 2.87 1.08 4.5 1.08 5.52 0 10-4.48 10-10S17.52 0 12 0z" />
</svg>
